<svg width="166" height="43" viewBox="0 0 166 43" fill="none" xmlns="http://www.w3.org/2000/svg">
<path d="M73.5435 10.9453L69.6623 28.4605L65.4826 10.9453H61.9994L58.1182 28.4605L54.038 10.9453H50.7539L56.1279 31.8441H59.7105L63.6913 14.727L67.7715 31.8441H71.3541L76.6286 10.9453H73.5435Z" fill="white"/>
<path d="M84.3886 32.0462C82.2987 32.1457 80.2088 31.25 78.716 29.6577C77.4223 28.0655 76.8252 25.9756 76.9247 23.8857C76.8252 21.6963 77.6214 19.6064 79.0146 18.0141C80.4079 16.5214 82.3982 15.7252 84.3886 15.8247C86.3789 15.7252 88.2698 16.5214 89.663 18.0141C91.2553 19.905 91.952 22.2934 91.6534 24.7814H79.7112C79.6117 26.0751 80.1093 27.3688 81.005 28.364C81.9006 29.2597 83.0948 29.6577 84.2891 29.6577C86.4785 29.6577 87.8717 28.7621 88.6679 26.9708L91.4544 27.3688C91.0563 28.6626 90.2601 29.8568 89.1654 30.7524C87.7722 31.6481 86.0804 32.1457 84.3886 32.0462ZM84.4881 18.2132C82.0997 18.0141 80.0098 19.8055 79.9103 22.1939C79.9103 22.2934 79.9103 22.4924 79.9103 22.592H88.9664C88.8669 20.2035 86.976 18.2132 84.4881 18.2132Z" fill="white"/>
<path d="M101.31 32.043C99.4188 32.1425 97.727 31.2468 96.6323 29.754L96.5328 31.7444H93.9453V10.7461H96.6323V18.5085C97.727 16.8167 99.6178 15.8215 101.608 16.0206C103.4 16.0206 105.091 16.8167 106.186 18.2099C107.48 19.9018 108.077 21.9916 107.977 24.181C108.077 26.2709 107.38 28.3608 106.087 30.0526C104.992 31.3463 103.2 32.1425 101.31 32.043ZM100.912 18.3095C99.7174 18.3095 98.6227 18.8071 97.8265 19.7027C96.8313 20.9965 96.4333 22.4892 96.5328 24.0815C96.4333 25.6738 96.9309 27.1666 97.8265 28.4603C98.6227 29.356 99.8169 29.8536 101.011 29.754C102.305 29.8536 103.499 29.2565 104.196 28.2613C104.992 26.9675 105.39 25.5743 105.29 24.0815C105.191 20.2998 103.698 18.3095 100.912 18.3095Z" fill="white"/>
<path d="M121.311 28.1636L115.937 10.6484H110.961V31.6467H113.946V13.4349L119.818 31.7463H123.003L128.874 13.4349V31.7463H131.86V10.748H126.884L121.311 28.1636Z" fill="white"/>
<path d="M142.014 32.0462C139.924 32.1457 137.834 31.25 136.341 29.6577C135.047 28.0655 134.45 25.9756 134.55 23.8857C134.45 21.6963 135.246 19.6064 136.64 18.0141C138.033 16.5214 140.023 15.7252 142.014 15.8247C144.004 15.7252 145.895 16.5214 147.288 18.0141C148.88 19.905 149.577 22.2934 149.278 24.7814H137.336C137.237 26.0751 137.734 27.3688 138.63 28.364C139.526 29.2597 140.72 29.6577 141.914 29.6577C144.103 29.6577 145.497 28.7621 146.293 26.9708L149.079 27.3688C148.681 28.6626 147.885 29.8568 146.79 30.7524C145.298 31.6481 143.705 32.1457 142.014 32.0462ZM142.014 18.2132C139.625 18.0141 137.535 19.8055 137.436 22.1939C137.436 22.2934 137.436 22.4924 137.436 22.592H146.492C146.492 20.2035 144.502 18.2132 142.014 18.2132Z" fill="white"/>
<path d="M157.536 32.0467C155.745 32.0467 154.053 31.2505 152.958 29.8573C151.665 28.1655 151.067 26.0756 151.167 23.8862C151.067 21.7963 151.764 19.7064 153.058 18.0146C154.252 16.6214 156.043 15.8252 157.934 15.8252C159.825 15.7257 161.517 16.6214 162.611 18.1142V10.5508H165.298V31.5491H162.711L162.611 29.4592C161.417 31.2505 159.526 32.2457 157.536 32.0467ZM158.233 18.3132C156.939 18.2137 155.745 18.8108 155.048 19.806C154.252 21.0997 153.854 22.4929 153.953 23.9857C153.953 27.6679 155.446 29.7578 158.233 29.7578C159.427 29.7578 160.522 29.2602 161.318 28.3645C162.313 27.0708 162.711 25.578 162.611 23.9857C162.711 22.3934 162.213 20.9007 161.318 19.6069C160.522 18.7113 159.427 18.2137 158.233 18.3132Z" fill="white"/>
<mask id="mask0_1056_4126" style="mask-type:luminance" maskUnits="userSpaceOnUse" x="0" y="0" width="43" height="43">
<path d="M42.5937 0H0V42.7928H42.5937V0Z" fill="white"/>
</mask>
<g mask="url(#mask0_1056_4126)">
<path d="M21.2969 42.7946C15.6243 42.7946 10.2504 40.5057 6.26964 36.5249C-2.08988 28.1654 -2.08988 14.631 6.26964 6.27144C14.6292 -2.08808 28.0641 -1.98856 36.4236 6.27144C40.4043 10.2522 42.6933 15.7257 42.6933 21.3982C42.6933 29.9567 37.6178 37.7191 29.6564 41.1028C26.9694 42.1975 24.1829 42.7946 21.2969 42.7946ZM9.85229 12.342C9.15566 12.342 8.55855 12.9391 8.55855 13.6358V31.7481C8.55855 32.2457 8.85711 32.7432 9.3547 32.9423C9.55373 33.0418 9.65325 33.0418 9.85229 33.0418C10.1508 33.0418 10.5489 32.9423 10.748 32.6437L18.6099 24.7818L26.4718 32.6437C26.9694 33.1413 27.7655 33.1413 28.2631 32.6437C28.7607 32.1461 28.7607 31.35 28.2631 30.8524L19.5055 22.0948C19.008 21.5972 18.2118 21.5972 17.7142 22.0948L11.146 28.663V13.6358C11.0465 12.9391 10.5489 12.342 9.85229 12.342ZM31.5472 14.1334V29.3596C31.5472 30.0563 32.1443 30.6534 32.841 30.6534C33.5376 30.6534 34.1347 30.0563 34.1347 29.3596V11.0483C34.1347 10.3517 33.5376 9.75457 32.841 9.75457C32.5424 9.75457 32.1443 9.85409 31.9453 10.1526L24.0834 18.0146L16.2214 10.1526C15.7239 9.65505 14.9277 9.65505 14.4301 10.1526C13.9325 10.6502 13.9325 11.4464 14.4301 11.944L23.1877 20.7016C23.6853 21.1991 24.4814 21.1991 24.979 20.7016L31.5472 14.1334Z" fill="white"/>
</g>
</svg>
