<svg width="166" height="43" viewBox="0 0 166 43" fill="none" xmlns="http://www.w3.org/2000/svg">
<g clip-path="url(#clip0_399_38462)">
<path d="M73.5847 10.9463L69.7011 28.4603L65.5188 10.9463H62.0336L58.15 28.4603L54.0673 10.9463H50.7812L56.1585 31.8437H59.7433L63.7264 14.7277L67.8091 31.8437H71.394L76.6716 10.9463H73.5847Z" fill="#4428B6"/>
<path d="M84.44 32.0432C82.3488 32.1427 80.2577 31.2471 78.764 29.6549C77.4695 28.0627 76.872 25.973 76.9716 23.8832C76.872 21.694 77.6687 19.6042 79.0627 18.012C80.4568 16.5194 82.4484 15.7233 84.44 15.8228C86.4315 15.7233 88.3235 16.5194 89.7176 18.012C91.3109 19.9028 92.0079 22.291 91.7092 24.7788H79.7598C79.6602 26.0725 80.1581 27.3661 81.0543 28.3612C81.9505 29.2568 83.1455 29.6549 84.3404 29.6549C86.5311 29.6549 87.9252 28.7593 88.7218 26.9681L91.51 27.3661C91.1117 28.6598 90.3151 29.8539 89.2197 30.7495C87.8256 31.6451 86.1328 32.1427 84.44 32.0432ZM84.5396 18.2111C82.1497 18.012 80.0585 19.8032 79.959 22.1915C79.959 22.291 79.959 22.4901 79.959 22.5896H89.0206C88.921 20.2013 87.029 18.2111 84.5396 18.2111Z" fill="#4428B6"/>
<path d="M101.369 32.0426C99.4768 32.1421 97.784 31.2465 96.6886 29.7538L96.589 31.744H94V10.7471H96.6886V18.509C97.784 16.8173 99.676 15.8222 101.668 16.0212C103.46 16.0212 105.153 16.8173 106.248 18.2104C107.543 19.9021 108.14 21.9919 108.041 24.1811C108.14 26.2709 107.443 28.3606 106.149 30.0523C105.053 31.346 103.261 32.1421 101.369 32.0426ZM100.97 18.31C99.7755 18.31 98.6802 18.8075 97.8836 19.7031C96.8878 20.9968 96.4895 22.4894 96.589 24.0816C96.4895 25.6738 96.9874 27.1665 97.8836 28.4601C98.6802 29.3557 99.8751 29.8533 101.07 29.7538C102.365 29.8533 103.56 29.2562 104.257 28.2611C105.053 26.9675 105.452 25.5743 105.352 24.0816C105.252 20.3002 103.759 18.31 100.97 18.31Z" fill="#4428B6"/>
<path d="M121.387 28.1615L116.01 10.6475H111.031V31.6444H114.019V13.4338L119.894 31.7439H123.08L128.955 13.4338V31.7439H131.943V10.747H126.964L121.387 28.1615Z" fill="#4428B6"/>
<path d="M142.096 32.0432C140.005 32.1427 137.914 31.2471 136.42 29.6549C135.126 28.0627 134.528 25.973 134.628 23.8832C134.528 21.694 135.325 19.6042 136.719 18.012C138.113 16.5194 140.105 15.7233 142.096 15.8228C144.088 15.7233 145.98 16.5194 147.374 18.012C148.967 19.9028 149.664 22.291 149.365 24.7788H137.416C137.316 26.0725 137.814 27.3661 138.711 28.3612C139.607 29.2568 140.802 29.6549 141.997 29.6549C144.187 29.6549 145.581 28.7593 146.378 26.9681L149.166 27.3661C148.768 28.6598 147.971 29.8539 146.876 30.7495C145.382 31.6451 143.789 32.1427 142.096 32.0432ZM142.096 18.2111C139.706 18.012 137.615 19.8032 137.516 22.1915C137.516 22.291 137.516 22.4901 137.516 22.5896H146.577C146.577 20.2013 144.586 18.2111 142.096 18.2111Z" fill="#4428B6"/>
<path d="M157.634 32.0424C155.841 32.0424 154.148 31.2463 153.053 29.8531C151.759 28.1614 151.161 26.0717 151.261 23.8824C151.161 21.7927 151.858 19.7029 153.153 18.0112C154.348 16.6181 156.14 15.822 158.032 15.822C159.924 15.7225 161.617 16.6181 162.712 18.1107V10.5479H165.401V31.5448H162.812L162.712 29.4551C161.517 31.2463 159.625 32.2414 157.634 32.0424ZM158.331 18.3098C157.036 18.2102 155.841 18.8073 155.144 19.8024C154.348 21.0961 153.949 22.4892 154.049 23.9819C154.049 27.6639 155.543 29.7536 158.331 29.7536C159.526 29.7536 160.621 29.256 161.418 28.3604C162.413 27.0668 162.812 25.5741 162.712 23.9819C162.812 22.3897 162.314 20.8971 161.418 19.6034C160.621 18.7078 159.526 18.2102 158.331 18.3098Z" fill="#4428B6"/>
<mask id="mask0_399_38462" style="mask-type:luminance" maskUnits="userSpaceOnUse" x="0" y="0" width="43" height="43">
<path d="M42.6195 0H0V42.79H42.6195V0Z" fill="white"/>
</mask>
<g mask="url(#mask0_399_38462)">
<path d="M21.3098 42.7898C15.6338 42.7898 10.2566 40.5011 6.27343 36.5206C-2.09114 28.1616 -2.09114 14.6281 6.27343 6.26908C14.638 -2.0899 28.0811 -1.99038 36.4457 6.26908C40.4288 10.2495 42.7191 15.7227 42.7191 21.3948C42.7191 29.9528 37.6406 37.7148 29.6743 41.0981C26.9857 42.1928 24.1975 42.7898 21.3098 42.7898ZM9.85825 12.3393C9.1612 12.3393 8.56374 12.9364 8.56374 13.6329V31.7441C8.56374 32.2416 8.86247 32.7392 9.36036 32.9382C9.55952 33.0377 9.6591 33.0377 9.85825 33.0377C10.157 33.0377 10.5553 32.9382 10.7545 32.6397L18.6211 24.7782L26.4878 32.6397C26.9857 33.1372 27.7823 33.1372 28.2802 32.6397C28.7781 32.1421 28.7781 31.346 28.2802 30.8484L19.5173 22.0914C19.0195 21.5939 18.2228 21.5939 17.7249 22.0914L11.1528 28.6592V13.6329C11.0532 12.9364 10.5553 12.3393 9.85825 12.3393ZM31.5663 14.1305V29.3558C31.5663 30.0524 32.1638 30.6494 32.8608 30.6494C33.5579 30.6494 34.1554 30.0524 34.1554 29.3558V11.0456C34.1554 10.3491 33.5579 9.75199 32.8608 9.75199C32.5621 9.75199 32.1638 9.8515 31.9646 10.15L24.098 18.0115L16.2313 10.15C15.7334 9.65248 14.9367 9.65248 14.4389 10.15C13.941 10.6476 13.941 11.4437 14.4389 11.9412L23.2017 20.6983C23.6996 21.1958 24.4963 21.1958 24.9942 20.6983L31.5663 14.1305Z" fill="#4428B6"/>
</g>
</g>
<defs>
<clipPath id="clip0_399_38462">
<rect width="165.3" height="42.79" fill="white"/>
</clipPath>
</defs>
</svg>
