<svg width="134" height="97" viewBox="0 0 134 97" fill="none" xmlns="http://www.w3.org/2000/svg">
<path d="M12.8916 81.9082H121.112C125.092 81.9082 128.379 78.5935 128.379 74.581V7.32725C128.379 3.31471 125.092 0 121.112 0H12.8916C8.91228 0 5.625 3.31471 5.625 7.32725V74.581C5.625 78.6808 8.91228 81.9082 12.8916 81.9082ZM9.43133 7.32725C9.43133 5.40821 10.9885 3.83809 12.8916 3.83809H121.112C123.016 3.83809 124.573 5.40821 124.573 7.32725V74.581C124.573 76.5 123.016 78.0702 121.112 78.0702H12.8916C10.9885 78.0702 9.43133 76.5 9.43133 74.581V7.32725Z" fill="#4428B6"/>
<path d="M132.097 92.4639H1.90316C0.865074 92.4639 0 93.3362 0 94.3829C0 95.4297 0.865074 96.302 1.90316 96.302H132.097C133.135 96.302 134 95.4297 134 94.3829C134 93.3362 133.135 92.4639 132.097 92.4639Z" fill="#4428B6"/>
<path d="M108.997 32.707H59.6016V36.5451H108.997V32.707Z" fill="#4428B6"/>
<path d="M108.997 40.8203H59.6016V44.6584H108.997V40.8203Z" fill="#4428B6"/>
<path d="M51.7331 15.7021H24.6562V65.4228H51.7331V15.7021Z" fill="#4428B6"/>
<path d="M109.257 51.7275H59.6016V65.3353H109.257V51.7275Z" fill="#4428B6"/>
<path d="M81.661 15.7021H59.6016V26.5186H81.661V15.7021Z" fill="#4428B6"/>
<path d="M109.083 15.7021H87.0234V26.5186H109.083V15.7021Z" fill="#4428B6"/>
</svg>
